<svg width="858" height="432" viewBox="0 0 858 432" fill="none" xmlns="http://www.w3.org/2000/svg">
<path d="M691.939 267.192C677.792 280.972 660.705 287.862 640.678 287.862C620.652 287.862 603.565 280.972 589.417 267.192C575.27 253.228 568.196 236.141 568.196 215.931C568.196 195.904 575.27 178.909 589.417 164.945C603.565 150.982 620.652 144 640.678 144C660.705 144 677.792 150.982 691.939 164.945C706.087 178.909 713.16 195.904 713.16 215.931C713.16 236.141 706.087 253.228 691.939 267.192ZM640.678 252.585C650.416 252.585 658.5 249.186 664.931 242.388C671.545 235.406 674.852 226.587 674.852 215.931C674.852 205.274 671.545 196.547 664.931 189.749C658.5 182.767 650.416 179.276 640.678 179.276C630.757 179.276 622.489 182.767 615.875 189.749C609.444 196.547 606.229 205.274 606.229 215.931C606.229 226.587 609.444 235.406 615.875 242.388C622.489 249.186 630.757 252.585 640.678 252.585Z" fill="white"/>
<path d="M457.633 181.206L457.633 231.736L497.801 191.557L497.801 147.032L385.357 147.032L385.357 181.206L457.633 181.206Z" fill="#AA9C92"/>
<path d="M514.904 284.831V147.032H552.661V284.831H514.904Z" fill="white"/>
<path d="M425.528 250.657V200.127L385.36 240.306L385.36 284.831H497.804V250.657H425.528Z" fill="white"/>
<path d="M304.704 287.862C283.759 287.862 266.304 281.247 252.341 268.019C238.561 254.79 231.671 237.427 231.671 215.931C231.671 195.353 238.561 178.266 252.341 164.67C266.12 150.89 283.391 144 304.153 144C323.261 144 339.337 149.971 352.382 161.914C365.427 173.673 371.95 190.3 371.95 211.797C371.95 217.86 371.766 222.178 371.398 224.75H268.325C269.428 233.753 273.378 240.826 280.176 245.971C287.158 250.932 295.426 253.412 304.98 253.412C321.148 253.412 332.999 247.625 340.532 236.049L368.642 256.995C354.495 277.573 333.182 287.862 304.704 287.862ZM269.703 199.119H334.193C332.539 191.219 328.773 185.248 322.893 181.206C317.198 177.164 310.583 175.142 303.05 175.142C295.334 175.142 288.26 177.164 281.83 181.206C275.399 185.248 271.357 191.219 269.703 199.119Z" fill="white"/>
<path d="M145 147.032V284.831H182.757V147.032H145Z" fill="white"/>
<path d="M236.583 147.033L216.915 147.032L182.756 181.197L236.583 181.197L236.583 147.033Z" fill="white"/>
</svg>
